<?xml version="1.0" encoding="UTF-8"?>
<svg xmlns="http://www.w3.org/2000/svg" xmlns:xlink="http://www.w3.org/1999/xlink" version="1.1" viewBox="0 0 792 463.9">
  <defs>
    <style>
      .cls-1 {
        fill: #086030;
      }

      .cls-2 {
        fill: url(#linear-gradient);
      }

      .cls-3 {
        fill: #fff;
      }

      .cls-4 {
        fill: #ee4137;
      }
    </style>
    <linearGradient id="linear-gradient" x1="378" y1="110" x2="378" y2="271.1" gradientTransform="translate(51.6 -63) rotate(8.9)" gradientUnits="userSpaceOnUse">
      <stop offset="0" stop-color="#39b54a"/>
      <stop offset="1" stop-color="#006837"/>
    </linearGradient>
  </defs>
  <g>
    <g id="Layer_1">
      <g>
        <path class="cls-4" d="M279.9,347.2v2.2h-5.6v3.5h4.3v2.1h-4.3v5.7h-2.7v-13.5h8.3Z"/>
        <path class="cls-4" d="M288.4,347.2v13.5h-2.7v-13.5h2.7Z"/>
        <path class="cls-4" d="M304.2,347.2v2.2h-3.6v11.3h-2.7v-11.3h-3.6v-2.2h9.9Z"/>
        <path class="cls-4" d="M318.2,352.6v2.3h-8.2v-2.3h8.2Z"/>
        <path class="cls-4" d="M334.3,347.2v2.2h-3.6v11.3h-2.7v-11.3h-3.6v-2.2h9.9Z"/>
        <path class="cls-4" d="M347.1,360.7l-3-5.3h-1.3v5.3h-2.7v-13.5h5.1c1,0,1.9.2,2.7.6.7.4,1.3.9,1.7,1.5.4.6.6,1.3.6,2.1s-.3,1.7-.8,2.4c-.5.7-1.3,1.2-2.3,1.5l3.2,5.5h-3.1ZM342.9,353.4h2.3c.7,0,1.3-.2,1.6-.5s.5-.8.5-1.5-.2-1.1-.5-1.4-.9-.5-1.6-.5h-2.3v4Z"/>
        <path class="cls-4" d="M364.7,358.1h-5.4l-.9,2.6h-2.8l4.9-13.5h3.2l4.9,13.5h-2.9l-.9-2.6ZM364,355.9l-2-5.6-2,5.6h3.9Z"/>
        <path class="cls-4" d="M374.4,350.3c.6-1.1,1.4-1.9,2.5-2.5,1-.6,2.2-.9,3.5-.9s2.8.4,4,1.2c1.1.8,1.9,1.8,2.4,3.2h-3.1c-.3-.6-.7-1.1-1.3-1.5-.6-.3-1.2-.5-1.9-.5s-1.5.2-2.1.6c-.6.4-1.1.9-1.4,1.6s-.5,1.5-.5,2.4.2,1.7.5,2.4.8,1.2,1.4,1.6c.6.4,1.3.6,2.1.6s1.4-.2,1.9-.5c.6-.3,1-.8,1.3-1.5h3.1c-.5,1.4-1.2,2.5-2.4,3.2-1.1.8-2.5,1.2-4,1.2s-2.5-.3-3.5-.9c-1-.6-1.9-1.4-2.5-2.4s-.9-2.2-.9-3.6.3-2.5.9-3.6Z"/>
        <path class="cls-4" d="M400.5,360.7l-4.9-6v6h-2.7v-13.5h2.7v6.1l4.9-6.1h3.3l-5.6,6.7,5.7,6.8h-3.4Z"/>
        <path class="cls-4" d="M417.8,352.6v2.3h-8.2v-2.3h8.2Z"/>
        <path class="cls-4" d="M431.7,360.7l-3-5.3h-1.3v5.3h-2.7v-13.5h5.1c1,0,1.9.2,2.7.6.7.4,1.3.9,1.7,1.5.4.6.6,1.3.6,2.1s-.3,1.7-.8,2.4c-.5.7-1.3,1.2-2.3,1.5l3.2,5.5h-3.1ZM427.4,353.4h2.3c.7,0,1.3-.2,1.6-.5.4-.4.5-.8.5-1.5s-.2-1.1-.5-1.4c-.4-.3-.9-.5-1.6-.5h-2.3v4Z"/>
        <path class="cls-4" d="M443.7,349.3v3.4h4.5v2.1h-4.5v3.6h5.1v2.2h-7.8v-13.5h7.8v2.2h-5.1Z"/>
        <path class="cls-4" d="M455.4,350.3c.6-1.1,1.4-1.9,2.5-2.5s2.2-.9,3.5-.9,2.8.4,4,1.2c1.1.8,1.9,1.8,2.4,3.2h-3.1c-.3-.6-.7-1.1-1.3-1.5s-1.2-.5-1.9-.5-1.5.2-2.1.6c-.6.4-1.1.9-1.4,1.6s-.5,1.5-.5,2.4.2,1.7.5,2.4.8,1.2,1.4,1.6c.6.4,1.3.6,2.1.6s1.4-.2,1.9-.5,1-.8,1.3-1.5h3.1c-.5,1.4-1.2,2.5-2.4,3.2-1.1.8-2.5,1.2-4,1.2s-2.5-.3-3.5-.9-1.9-1.4-2.5-2.4-.9-2.2-.9-3.6.3-2.5.9-3.6Z"/>
        <path class="cls-4" d="M476.7,359.9c-1.1-.6-1.9-1.4-2.5-2.5s-.9-2.2-.9-3.6.3-2.5.9-3.5,1.5-1.9,2.5-2.5c1.1-.6,2.2-.9,3.5-.9s2.4.3,3.5.9c1.1.6,1.9,1.4,2.5,2.5.6,1.1.9,2.2.9,3.5s-.3,2.5-.9,3.6c-.6,1.1-1.4,1.9-2.5,2.5-1.1.6-2.2.9-3.5.9s-2.4-.3-3.5-.9ZM482.3,357.8c.6-.4,1.1-.9,1.5-1.6.3-.7.5-1.5.5-2.4s-.2-1.7-.5-2.4c-.3-.7-.8-1.2-1.5-1.6-.6-.4-1.3-.5-2.1-.5s-1.5.2-2.2.5c-.6.4-1.1.9-1.5,1.6-.3.7-.5,1.5-.5,2.4s.2,1.7.5,2.4c.3.7.8,1.2,1.5,1.6.6.4,1.3.6,2.2.6s1.5-.2,2.1-.6Z"/>
        <path class="cls-4" d="M499.9,360.7l-3-5.3h-1.3v5.3h-2.7v-13.5h5.1c1,0,1.9.2,2.7.6.7.4,1.3.9,1.7,1.5.4.6.6,1.3.6,2.1s-.3,1.7-.8,2.4c-.5.7-1.3,1.2-2.3,1.5l3.2,5.5h-3.1ZM495.6,353.4h2.3c.7,0,1.3-.2,1.6-.5.4-.4.5-.8.5-1.5s-.2-1.1-.5-1.4c-.4-.3-.9-.5-1.6-.5h-2.3v4Z"/>
        <path class="cls-4" d="M517.7,348c1.1.6,1.9,1.3,2.5,2.4.6,1,.9,2.2.9,3.6s-.3,2.5-.9,3.5c-.6,1-1.4,1.8-2.5,2.3-1.1.6-2.3.8-3.7.8h-4.7v-13.5h4.7c1.4,0,2.7.3,3.7.8ZM517.1,357.2c.8-.8,1.2-1.9,1.2-3.3s-.4-2.5-1.2-3.3-1.9-1.2-3.3-1.2h-1.9v8.9h1.9c1.4,0,2.5-.4,3.3-1.2Z"/>
      </g>
      <g>
        <g>
          <circle class="cls-1" cx="396" cy="179.2" r="87.4" transform="translate(70.4 467.1) rotate(-65.8)"/>
          <circle class="cls-2" cx="395.3" cy="179.2" r="85.4" transform="translate(-22.9 63.2) rotate(-8.9)"/>
        </g>
        <path class="cls-3" d="M460.8,179.2h0c0-3.1-2.1-3.9-3.8-5-28.9-19.5-57.8-39-86.8-58.4-1.4-1-3.9-.5-3.5,3.3,1.2,8.6,2.4,17.7,3.6,26.9,1.3,10.3,3.1,20.6,3.5,30.9,0,.8,0,1.6,0,2.4,0,.8,0,1.6,0,2.4-.4,10.4-2.2,20.6-3.5,30.9-1.1,9.1-2.4,18.2-3.6,26.9-.4,3.8,2.1,4.2,3.5,3.3,28.9-19.5,57.9-38.9,86.8-58.4,1.7-1.1,3.8-1.9,3.8-5h0ZM369.9,237.1c-.1.2-.4.2-.2-.2.3-.9.9-2.6,1.2-3.5,4.7-14.3,9.3-28.7,14.1-42.9,1.3-3.8,2-7.6,2-11.3h0c0-3.8-.6-7.5-2-11.3-4.8-14.2-9.4-28.6-14.1-42.9-.3-.9-.9-2.6-1.2-3.5-.1-.4.1-.3.2-.2.3.4.8,1.3.9,1.5,9.3,16.3,18.6,32.7,27.8,49,1.3,2.3,1.9,4.9,1.9,7.4,0,2.6-.6,5.1-1.9,7.4-9.2,16.4-18.5,32.7-27.8,49-.1.2-.6,1.1-.9,1.5ZM433.3,184.8c-19.1,16.9-38.2,33.9-57.3,50.8-.6.5-1.1,1-1.7,1.5,0,0-.3.2-.3.2-.5.3-.6.5-.8.4-.2-.2.5-.8.6-1.1,5.2-6.3,10.5-12.5,15.7-18.8,8.8-10.5,17.7-21,26.5-31.6,2.1-2.5,3.2-4.8,3.1-7.1h0c0-2.3-1-4.6-3.1-7.1-8.8-10.5-17.7-21-26.5-31.6-5.2-6.3-10.5-12.5-15.7-18.8-.2-.2-.8-.9-.6-1.1.1-.1.3,0,.8.4,0,0,.3.2.3.2.6.5,1.1,1,1.7,1.5,19.1,16.9,38.2,33.9,57.3,50.8,2.2,1.9,3.2,3.8,3.2,5.6,0,1.9-1,3.7-3.2,5.6Z"/>
      </g>
      <g>
        <path d="M126.9,301v6h-10.9v4.8h8v5.8h-8v10.7h-7.6v-27.2h18.5Z"/>
        <path d="M150.6,301v6h-7.3v21.2h-7.6v-21.2h-7.2v-6h22Z"/>
        <path d="M167.3,328.2l-5.4-10h-.8v10h-7.6v-27.2h11.9c2.2,0,4,.4,5.6,1.1,1.5.8,2.7,1.8,3.4,3.1s1.2,2.8,1.2,4.5-.5,3.5-1.5,4.9c-1,1.4-2.5,2.4-4.5,3l6.1,10.6h-8.5ZM161,313h3.7c1,0,1.8-.2,2.3-.7.5-.5.8-1.2.8-2.1s-.3-1.6-.8-2.1c-.5-.5-1.3-.8-2.3-.8h-3.7v5.7Z"/>
        <path d="M206.7,314.6c-.8,1.4-1.9,2.4-3.4,3.2-1.5.8-3.4,1.2-5.6,1.2h-3.7v9.2h-7.6v-27.2h11.3c2.2,0,4,.4,5.6,1.2,1.5.8,2.7,1.8,3.5,3.2s1.2,2.9,1.2,4.7-.4,3.1-1.1,4.5ZM200.2,310.1c0-2-1.1-3-3.2-3h-3v5.9h3c2.1,0,3.2-1,3.2-2.9Z"/>
        <path d="M218.5,322.4h8.5v5.8h-16v-27.2h7.6v21.4Z"/>
        <path d="M247.1,323.8h-9.7l-1.5,4.4h-8l9.9-27.2h8.7l9.9,27.2h-8l-1.5-4.4ZM245.2,318l-2.9-8.8-2.9,8.8h5.8Z"/>
        <path d="M283.8,301l-9.6,18.6v8.7h-7.6v-8.7l-9.6-18.6h8.7l4.8,10.5,4.8-10.5h8.5Z"/>
        <path d="M306.5,314.6c-.8,1.4-1.9,2.4-3.4,3.2-1.5.8-3.4,1.2-5.6,1.2h-3.7v9.2h-7.6v-27.2h11.3c2.2,0,4,.4,5.6,1.2,1.5.8,2.7,1.8,3.5,3.2s1.2,2.9,1.2,4.7-.4,3.1-1.1,4.5ZM299.9,310.1c0-2-1.1-3-3.2-3h-3v5.9h3c2.1,0,3.2-1,3.2-2.9Z"/>
        <path d="M324.5,328.2l-5.4-10h-.8v10h-7.6v-27.2h11.9c2.2,0,4,.4,5.6,1.1,1.5.8,2.7,1.8,3.4,3.1s1.2,2.8,1.2,4.5-.5,3.5-1.5,4.9c-1,1.4-2.5,2.4-4.5,3l6.1,10.6h-8.5ZM318.3,313h3.7c1,0,1.8-.2,2.3-.7.5-.5.8-1.2.8-2.1s-.3-1.6-.8-2.1c-.5-.5-1.3-.8-2.3-.8h-3.7v5.7Z"/>
        <path d="M342.2,326.7c-2.1-1.2-3.8-2.9-5.1-5s-1.9-4.5-1.9-7.2.6-5.1,1.9-7.2,2.9-3.8,5.1-5c2.1-1.2,4.5-1.8,7-1.8s4.9.6,7,1.8c2.1,1.2,3.8,2.8,5,5,1.2,2.1,1.9,4.5,1.9,7.2s-.6,5.1-1.9,7.2c-1.2,2.1-2.9,3.8-5.1,5s-4.5,1.8-7,1.8-4.9-.6-7-1.8ZM353.8,319.6c1.1-1.3,1.7-2.9,1.7-5.1s-.6-3.9-1.7-5.1c-1.1-1.2-2.6-1.9-4.6-1.9s-3.5.6-4.6,1.9c-1.1,1.2-1.7,3-1.7,5.1s.6,3.8,1.7,5.1c1.1,1.2,2.6,1.9,4.6,1.9s3.5-.6,4.6-1.9Z"/>
        <path d="M376.5,326.2c-2-1.5-3.1-3.7-3.3-6.5h8.1c0,1,.4,1.6.8,2.1s1.1.7,1.9.7,1.3-.2,1.7-.5.7-.8.7-1.4-.4-1.4-1.1-1.9-2-.9-3.6-1.5c-1.8-.6-3.2-1.2-4.3-1.7s-2-1.4-2.9-2.4c-.8-1.1-1.2-2.5-1.2-4.2s.4-3.3,1.3-4.5c.9-1.2,2.1-2.2,3.6-2.8,1.5-.6,3.3-1,5.3-1,3.2,0,5.7.7,7.6,2.2s2.9,3.6,3,6.2h-8.2c0-.8-.3-1.4-.8-1.9-.5-.4-1.1-.6-1.8-.6s-1,.2-1.4.5-.5.8-.5,1.4.2,1,.6,1.3c.4.4.9.7,1.5,1,.6.3,1.5.6,2.6,1,1.7.6,3.1,1.2,4.3,1.8,1.1.6,2.1,1.4,2.9,2.4.8,1,1.2,2.4,1.2,4s-.4,3.1-1.2,4.4c-.8,1.3-2,2.3-3.5,3.1-1.5.7-3.3,1.1-5.4,1.1-3.2,0-5.8-.8-7.8-2.3Z"/>
        <path d="M418.3,314.6c-.8,1.4-1.9,2.4-3.4,3.2-1.5.8-3.4,1.2-5.6,1.2h-3.7v9.2h-7.6v-27.2h11.3c2.2,0,4,.4,5.6,1.2,1.5.8,2.7,1.8,3.5,3.2.8,1.4,1.2,2.9,1.2,4.7s-.4,3.1-1.1,4.5ZM411.7,310.1c0-2-1.1-3-3.2-3h-3v5.9h3c2.1,0,3.2-1,3.2-2.9Z"/>
        <path d="M428.5,326.7c-2.1-1.2-3.8-2.9-5.1-5-1.2-2.1-1.9-4.5-1.9-7.2s.6-5.1,1.9-7.2c1.2-2.1,2.9-3.8,5.1-5,2.1-1.2,4.5-1.8,7-1.8s4.9.6,7,1.8c2.1,1.2,3.8,2.8,5,5,1.2,2.1,1.9,4.5,1.9,7.2s-.6,5.1-1.9,7.2c-1.2,2.1-2.9,3.8-5.1,5-2.1,1.2-4.5,1.8-7,1.8s-4.9-.6-7-1.8ZM440.1,319.6c1.1-1.3,1.7-2.9,1.7-5.1s-.6-3.9-1.7-5.1c-1.1-1.2-2.6-1.9-4.6-1.9s-3.5.6-4.6,1.9c-1.1,1.2-1.7,3-1.7,5.1s.6,3.8,1.7,5.1c1.1,1.2,2.6,1.9,4.6,1.9s3.5-.6,4.6-1.9Z"/>
        <path d="M466.7,328.2l-5.4-10h-.8v10h-7.6v-27.2h11.9c2.2,0,4,.4,5.6,1.1,1.5.8,2.7,1.8,3.4,3.1s1.2,2.8,1.2,4.5-.5,3.5-1.5,4.9c-1,1.4-2.5,2.4-4.5,3l6.1,10.6h-8.5ZM460.5,313h3.7c1,0,1.8-.2,2.3-.7.5-.5.8-1.2.8-2.1s-.3-1.6-.8-2.1-1.3-.8-2.3-.8h-3.7v5.7Z"/>
        <path d="M498.9,301v6h-7.3v21.2h-7.6v-21.2h-7.2v-6h22Z"/>
        <path d="M504.2,326.2c-2-1.5-3.1-3.7-3.3-6.5h8.1c0,1,.4,1.6.8,2.1.5.4,1.1.7,1.9.7s1.3-.2,1.7-.5.7-.8.7-1.4-.4-1.4-1.1-1.9c-.7-.4-2-.9-3.6-1.5-1.8-.6-3.2-1.2-4.3-1.7-1.1-.6-2-1.4-2.9-2.4-.8-1.1-1.2-2.5-1.2-4.2s.4-3.3,1.3-4.5c.9-1.2,2.1-2.2,3.6-2.8,1.5-.6,3.3-1,5.3-1,3.2,0,5.7.7,7.6,2.2s2.9,3.6,3,6.2h-8.2c0-.8-.3-1.4-.8-1.9-.5-.4-1.1-.6-1.8-.6s-1,.2-1.4.5-.5.8-.5,1.4.2,1,.6,1.3c.4.4.9.7,1.5,1,.6.3,1.5.6,2.6,1,1.7.6,3.1,1.2,4.3,1.8,1.1.6,2.1,1.4,2.9,2.4.8,1,1.2,2.4,1.2,4s-.4,3.1-1.2,4.4c-.8,1.3-2,2.3-3.5,3.1-1.5.7-3.3,1.1-5.4,1.1-3.2,0-5.8-.8-7.8-2.3Z"/>
        <path d="M553.4,314.6c-.8,1.4-1.9,2.4-3.4,3.2-1.5.8-3.4,1.2-5.6,1.2h-3.7v9.2h-7.6v-27.2h11.3c2.2,0,4,.4,5.6,1.2,1.5.8,2.7,1.8,3.5,3.2s1.2,2.9,1.2,4.7-.4,3.1-1.1,4.5ZM546.9,310.1c0-2-1.1-3-3.2-3h-3v5.9h3c2.1,0,3.2-1,3.2-2.9Z"/>
        <path d="M584.1,301l-9.4,27.2h-9.7l-9.4-27.2h8.1l6.2,19.7,6.1-19.7h8.1Z"/>
        <path d="M607,301v6h-7.3v21.2h-7.6v-21.2h-7.2v-6h22Z"/>
        <path d="M624.7,322.4h8.5v5.8h-16v-27.2h7.6v21.4Z"/>
        <path d="M656.7,301v6h-7.3v21.2h-7.6v-21.2h-7.2v-6h22Z"/>
        <path d="M677.8,302.7c2.1,1.1,3.8,2.7,5,4.8,1.2,2.1,1.7,4.4,1.7,7.1s-.6,5-1.8,7c-1.2,2.1-2.8,3.7-5,4.8-2.2,1.2-4.6,1.8-7.5,1.8h-10.8v-27.2h10.8c2.9,0,5.4.6,7.5,1.7ZM674.9,319.7c1.3-1.2,1.9-2.9,1.9-5.1s-.6-4-1.9-5.2c-1.3-1.2-3-1.8-5.2-1.8h-2.6v14h2.6c2.2,0,4-.6,5.2-1.8Z"/>
      </g>
    </g>
  </g>
</svg>
