<svg xmlns="http://www.w3.org/2000/svg" xmlns:xlink="http://www.w3.org/1999/xlink" viewBox="308 92 176 176">
  <defs>
    <linearGradient id="lg" x1="378" y1="110" x2="378" y2="271.1" gradientTransform="translate(51.6 -63) rotate(8.9)" gradientUnits="userSpaceOnUse">
      <stop offset="0" stop-color="#39b54a"/>
      <stop offset="1" stop-color="#006837"/>
    </linearGradient>
  </defs>
  <circle fill="#086030" cx="396" cy="179.2" r="87.4" transform="translate(70.4 467.1) rotate(-65.8)"/>
  <circle fill="url(#lg)" cx="395.3" cy="179.2" r="85.4" transform="translate(-22.9 63.2) rotate(-8.9)"/>
  <path fill="#fff" d="M460.8,179.2h0c0-3.1-2.1-3.9-3.8-5-28.9-19.5-57.8-39-86.8-58.4-1.4-1-3.9-.5-3.5,3.3,1.2,8.6,2.4,17.7,3.6,26.9,1.3,10.3,3.1,20.6,3.5,30.9,0,.8,0,1.6,0,2.4,0,.8,0,1.6,0,2.4-.4,10.4-2.2,20.6-3.5,30.9-1.1,9.1-2.4,18.2-3.6,26.9-.4,3.8,2.1,4.2,3.5,3.3,28.9-19.5,57.9-38.9,86.8-58.4,1.7-1.1,3.8-1.9,3.8-5h0ZM369.9,237.1c-.1.2-.4.2-.2-.2.3-.9.9-2.6,1.2-3.5,4.7-14.3,9.3-28.7,14.1-42.9,1.3-3.8,2-7.6,2-11.3h0c0-3.8-.6-7.5-2-11.3-4.8-14.2-9.4-28.6-14.1-42.9-.3-.9-.9-2.6-1.2-3.5-.1-.4.1-.3.2-.2.3.4.8,1.3.9,1.5,9.3,16.3,18.6,32.7,27.8,49,1.3,2.3,1.9,4.9,1.9,7.4,0,2.6-.6,5.1-1.9,7.4-9.2,16.4-18.5,32.7-27.8,49-.1.2-.6,1.1-.9,1.5ZM433.3,184.8c-19.1,16.9-38.2,33.9-57.3,50.8-.6.5-1.1,1-1.7,1.5,0,0-.3.2-.3.2-.5.3-.6.5-.8.4-.2-.2.5-.8.6-1.1,5.2-6.3,10.5-12.5,15.7-18.8,8.8-10.5,17.7-21,26.5-31.6,2.1-2.5,3.2-4.8,3.1-7.1h0c0-2.3-1-4.6-3.1-7.1-8.8-10.5-17.7-21-26.5-31.6-5.2-6.3-10.5-12.5-15.7-18.8-.2-.2-.8-.9-.6-1.1.1-.1.3,0,.8.4,0,0,.3.2.3.2.6.5,1.1,1,1.7,1.5,19.1,16.9,38.2,33.9,57.3,50.8,2.2,1.9,3.2,3.8,3.2,5.6,0,1.9-1,3.7-3.2,5.6Z"/>
</svg>
